# xmcd
#
# Track frame offsets: 
#        150
#        20673
#        35915
#        53695
#        62317
#        83541
#        103159
#        110264
#        134885
#        148750
#        161658
#
# Disc length: 2733 seconds
#
# Revision: 0
# Processed by: cddbd v1.4PL0 Copyright (c) Steve Scherf et al.
# Submitted via: ExactAudioCopy v0.90b4
#
DISCID=980aab0b
DTITLE=Purdymouth W.V. - just don't kiss her
DYEAR=1900
DGENRE=Bluegrass
TTITLE0=Breakfast at Lucilles
TTITLE1=Brain Damage
TTITLE2=Over the Hills and Far Away
TTITLE3=Sugar Foot Rag
TTITLE4=Watertower
TTITLE5=Sundance Mountain Mama
TTITLE6=Trailer Trek
TTITLE7=Buildings Falling
TTITLE8=Mr. Spaceman
TTITLE9=Zoloft
TTITLE10=Trailer Trek - (reprise)
EXTD=
EXTT0=
EXTT1=
EXTT2=
EXTT3=
EXTT4=
EXTT5=
EXTT6=
EXTT7=
EXTT8=
EXTT9=
EXTT10=
PLAYORDER=
